<svg xmlns="http://www.w3.org/2000/svg" viewBox="0 0 512 512" role="img" aria-label="6P">
  <path fill="#050505" d="M284 448Q334 463 411 463Q502 463 553.0 443.0Q604 423 625.0 383.0Q646 343 646 283V187Q646 126 622.0 80.5Q598 35 535.5 10.0Q473 -15 358 -15Q266 -15 207.0 -0.5Q148 14 115.5 40.5Q83 67 70.5 104.0Q58 141 58 187V515Q58 576 80.0 622.0Q102 668 156.0 694.0Q210 720 304 720H534Q570 720 570 684V566Q570 530 534 530H347Q310 530 297.0 518.5Q284 507 284 470ZM284 262V203Q284 187 296.0 176.5Q308 166 351 166Q396 166 408.0 176.5Q420 187 420 203V262Q420 277 408.0 287.5Q396 298 351 298Q308 298 296.0 287.5Q284 277 284 262Z" transform="translate(44 332) scale(0.365 -0.365)"/>
  <path fill="#2E6450" d="M260 0H105Q69 0 69 36V684Q69 720 105 720H411Q502 720 553.5 695.5Q605 671 626.0 627.0Q647 583 647 525V397Q647 339 626.0 295.0Q605 251 553.5 226.5Q502 202 411 202H296V36Q296 0 260 0ZM294 533V382H384Q413 382 422.0 397.0Q431 412 431 431V484Q431 504 422.0 518.5Q413 533 384 533Z" transform="translate(240 359) scale(0.305 -0.305)"/>
</svg>
